<?xml version="1.0" encoding="UTF-8" standalone="no"?><!DOCTYPE svg PUBLIC "-//W3C//DTD SVG 1.1//EN" "http://www.w3.org/Graphics/SVG/1.1/DTD/svg11.dtd"><svg width="100%" height="100%" viewBox="0 0 512 512" version="1.1" xmlns="http://www.w3.org/2000/svg" xmlns:xlink="http://www.w3.org/1999/xlink" xml:space="preserve" xmlns:serif="http://www.serif.com/" style="fill-rule:evenodd;clip-rule:evenodd;stroke-linejoin:round;stroke-miterlimit:2;"><path id="Automate" d="M256,0l256,256l-256,256l-256,-256l256,-256Zm0,75l127.986,53.014l53.014,127.986l-53.014,127.986l-127.986,53.014l-127.986,-53.014l-53.014,-127.986l53.014,-127.986l127.986,-53.014Zm0,4l125.158,51.842l51.842,125.158l-51.842,125.158l-125.158,51.842l-125.158,-51.842l-51.842,-125.158l51.842,-125.158l125.158,-51.842Zm0,267.51l-90.51,-90.51l90.51,-90.51l90.51,90.51l-90.51,90.51Zm0,-5.657l84.853,-84.853l-84.853,-84.853l-84.853,84.853l84.853,84.853Z" style="fill:#ececec;"/></svg>