<?xml version="1.0" encoding="UTF-8" standalone="no"?><!DOCTYPE svg PUBLIC "-//W3C//DTD SVG 1.1//EN" "http://www.w3.org/Graphics/SVG/1.1/DTD/svg11.dtd"><svg width="100%" height="100%" viewBox="0 0 512 512" version="1.1" xmlns="http://www.w3.org/2000/svg" xmlns:xlink="http://www.w3.org/1999/xlink" xml:space="preserve" xmlns:serif="http://www.serif.com/" style="fill-rule:evenodd;clip-rule:evenodd;stroke-linejoin:round;stroke-miterlimit:2;"><path id="Collaborate" d="M0,256l256,-256l256,256l-64,64l-192,192l-64,-64l-192,-192Zm512,0l-194.839,-194.839l-61.161,-61.161l-194.832,194.832l-61.168,61.168l256,256l256,-256Zm-253.168,130.832l-61.161,61.161l58.336,58.336l189.161,-189.161l-58.336,-58.336l-128,128Zm-194.825,-189.161l-58.336,58.336l189.154,189.154l58.336,-58.336l-127.993,-127.993l-61.161,-61.161Zm63.993,58.329l128,128l128,-128l-128,-128l-128,128Zm320,58.323l58.329,-58.33l-189.161,-189.161l-58.336,58.336l128,128l0.007,-0.007l61.161,61.162Zm-133.677,-250.323l-58.33,-58.329l-189.154,189.154l58.336,58.336l127.993,-127.993l-0.007,-0.007l61.162,-61.161Z" style="fill:#ececec;"/></svg>