<?xml version="1.0" encoding="UTF-8" standalone="no"?><!DOCTYPE svg PUBLIC "-//W3C//DTD SVG 1.1//EN" "http://www.w3.org/Graphics/SVG/1.1/DTD/svg11.dtd"><svg width="100%" height="100%" viewBox="0 0 512 512" version="1.1" xmlns="http://www.w3.org/2000/svg" xmlns:xlink="http://www.w3.org/1999/xlink" xml:space="preserve" xmlns:serif="http://www.serif.com/" style="fill-rule:evenodd;clip-rule:evenodd;stroke-linejoin:round;stroke-miterlimit:2;"><path id="Content" d="M382.586,385.414l-126.586,126.586l-126.586,-126.586l126.586,-126.586l126.586,126.586Zm-126.586,-62.805l64,64l-64,64l-64,-64l64,-64Zm-126.586,-196.023l126.586,-126.586l256,256l-126.586,126.586l-2.828,2.828l2.828,-2.828l-126.586,-126.586l126.586,-126.586l-2.828,-2.828l-126.586,126.586l-126.586,-126.586Zm0,0l-2.828,2.828l126.586,126.586l-126.586,126.586l2.828,2.828l-2.828,-2.828l-126.586,-126.586l126.586,-126.586l2.828,-2.828l0,0Zm318.586,130.781l-64,64l-64,-64l64,-64l64,64Zm-256.781,0l-64,64l-64,-64l64,-64l64,64Zm64.781,-194.867l64,64l-64,64l-64,-64l64,-64Z" style="fill:#ececec;"/></svg>