<?xml version="1.0" encoding="UTF-8" standalone="no"?><!DOCTYPE svg PUBLIC "-//W3C//DTD SVG 1.1//EN" "http://www.w3.org/Graphics/SVG/1.1/DTD/svg11.dtd"><svg width="100%" height="100%" viewBox="0 0 512 512" version="1.1" xmlns="http://www.w3.org/2000/svg" xmlns:xlink="http://www.w3.org/1999/xlink" xml:space="preserve" xmlns:serif="http://www.serif.com/" style="fill-rule:evenodd;clip-rule:evenodd;stroke-linejoin:round;stroke-miterlimit:2;"><path id="Data" d="M258.048,512l0,-31.013l31.013,0l-31.013,31.013Zm-4.096,0l-31.013,-31.013l31.013,0l0,31.013Zm37.157,-68.169l0,33.06l-33.061,0l0,-33.06l33.061,0Zm-37.157,0l0,33.06l-33.061,0l0,-33.06l33.061,0Zm41.253,31.012l0,-31.012l31.012,0l-31.012,31.012Zm-78.41,0l-31.012,-31.012l31.012,0l0,31.012Zm111.47,-68.169l0,33.061l-33.06,0l0,-33.061l33.06,0Zm-37.156,0l0,33.061l-33.061,0l0,-33.061l33.061,0Zm-37.157,0l0,33.061l-33.061,0l0,-33.061l33.061,0Zm-37.157,0l0,33.061l-33.06,0l0,-33.061l33.06,0Zm115.566,31.013l0,-31.013l31.013,0l-31.013,31.013Zm-152.722,0l-31.013,-31.013l31.013,0l0,31.013Zm185.783,-68.169l0,33.06l-33.061,0l0,-33.06l33.061,0Zm-37.157,0l0,33.06l-33.06,0l0,-33.06l33.06,0Zm-37.156,0l0,33.06l-33.061,0l0,-33.06l33.061,0Zm-37.157,0l0,33.06l-33.061,0l0,-33.06l33.061,0Zm-37.157,0l0,33.06l-33.06,0l0,-33.06l33.06,0Zm-37.156,0l0,33.06l-33.061,0l0,-33.06l33.061,0Zm189.879,31.012l0,-31.012l31.012,0l-31.012,31.012Zm-227.036,0l-31.012,-31.012l31.012,0l0,31.012Zm260.096,-68.169l0,33.061l-33.06,0l0,-33.061l33.06,0Zm-37.156,0l0,33.061l-33.061,0l0,-33.061l33.061,0Zm-37.157,0l0,33.061l-33.06,0l0,-33.061l33.06,0Zm-37.156,0l0,33.061l-33.061,0l0,-33.061l33.061,0Zm-37.157,0l0,33.061l-33.061,0l0,-33.061l33.061,0Zm-37.157,0l0,33.061l-33.06,0l0,-33.061l33.06,0Zm-37.156,0l0,33.061l-33.061,0l0,-33.061l33.061,0Zm-37.157,0l0,33.061l-33.06,0l0,-33.061l33.06,0Zm264.192,31.013l0,-31.013l31.013,0l-31.013,31.013Zm-301.348,0l-31.013,-31.013l31.013,0l0,31.013Zm334.409,-68.169l0,33.06l-33.061,0l0,-33.06l33.061,0Zm-37.157,0l0,33.06l-33.06,0l0,-33.06l33.06,0Zm-37.156,0l0,33.06l-33.061,0l0,-33.06l33.061,0Zm-37.157,0l0,33.06l-33.06,0l0,-33.06l33.06,0Zm-37.156,0l0,33.06l-33.061,0l0,-33.06l33.061,0Zm-37.157,0l0,33.06l-33.061,0l0,-33.06l33.061,0Zm-37.157,0l0,33.06l-33.06,0l0,-33.06l33.06,0Zm-37.156,0l0,33.06l-33.061,0l0,-33.06l33.061,0Zm-37.157,0l0,33.06l-33.06,0l0,-33.06l33.06,0Zm-37.156,0l0,33.06l-33.061,0l0,-33.06l33.061,0Zm338.505,31.012l0,-31.012l31.012,0l-31.012,31.012Zm-375.662,0l-31.012,-31.012l31.012,0l0,31.012Zm408.722,-68.169l0,33.061l-33.06,0l0,-33.061l33.06,0Zm-37.156,0l0,33.061l-33.061,0l0,-33.061l33.061,0Zm-37.157,0l0,33.061l-33.06,0l0,-33.061l33.06,0Zm-37.156,0l0,33.061l-33.061,0l0,-33.061l33.061,0Zm-37.157,0l0,33.061l-33.06,0l0,-33.061l33.06,0Zm-37.156,0l0,33.061l-33.061,0l0,-33.061l33.061,0Zm-37.157,0l0,33.061l-33.061,0l0,-33.061l33.061,0Zm-37.157,0l0,33.061l-33.06,0l0,-33.061l33.06,0Zm-37.156,0l0,33.061l-33.061,0l0,-33.061l33.061,0Zm-37.157,0l0,33.061l-33.06,0l0,-33.061l33.06,0Zm-37.156,0l0,33.061l-33.061,0l0,-33.061l33.061,0Zm-37.157,0l0,33.061l-33.06,0l0,-33.061l33.06,0Zm412.818,31.013l0,-31.013l31.013,0l-31.013,31.013Zm-449.974,0l-31.013,-31.013l31.013,0l0,31.013Zm449.974,-66.122l31.013,31.013l-31.013,0l0,-31.013Zm-4.096,-2.048l0,33.061l-33.06,0l0,-33.061l33.06,0Zm-37.156,0l0,33.061l-33.061,0l0,-33.061l33.061,0Zm-70.217,33.061l33.06,0l0,-33.061l-33.06,0l0,33.061Zm-4.096,-33.061l0,33.061l-33.061,0l0,-33.061l33.061,0Zm-37.157,0l0,33.061l-33.06,0l0,-33.061l33.06,0Zm-37.156,0l0,33.061l-33.061,0l0,-33.061l33.061,0Zm-37.157,0l0,33.061l-33.061,0l0,-33.061l33.061,0Zm-37.157,0l0,33.061l-33.06,0l0,-33.061l33.06,0Zm-37.156,0l0,33.061l-33.061,0l0,-33.061l33.061,0Zm-70.217,33.061l33.06,0l0,-33.061l-33.06,0l0,33.061Zm-4.096,-33.061l0,33.061l-33.061,0l0,-33.061l33.061,0Zm-37.157,0l0,33.061l-33.06,0l0,-33.061l33.06,0Zm-37.156,33.061l-31.013,0l31.013,-31.013l0,31.013Zm412.818,-68.169l31.012,31.012l-31.012,0l0,-31.012Zm-4.096,-2.048l0,33.06l-33.061,0l0,-33.06l33.061,0Zm-70.217,33.06l33.06,0l0,-33.06l-33.06,0l0,33.06Zm-4.096,-33.06l0,33.06l-33.061,0l0,-33.06l33.061,0Zm-37.157,0l0,33.06l-33.06,0l0,-33.06l33.06,0Zm-37.156,0l0,33.06l-33.061,0l0,-33.06l33.061,0Zm-37.157,0l0,33.06l-33.061,0l0,-33.06l33.061,0Zm-37.157,0l0,33.06l-33.06,0l0,-33.06l33.06,0Zm-37.156,0l0,33.06l-33.061,0l0,-33.06l33.061,0Zm-70.217,33.06l33.06,0l0,-33.06l-33.06,0l0,33.06Zm-4.096,-33.06l0,33.06l-33.061,0l0,-33.06l33.061,0Zm-37.157,33.06l-31.012,0l31.012,-31.012l0,31.012Zm338.505,-68.169l31.013,31.013l-31.013,0l0,-31.013Zm-37.156,31.013l33.06,0l0,-33.061l-33.06,0l0,33.061Zm-4.096,-33.061l0,33.061l-33.061,0l0,-33.061l33.061,0Zm-37.157,0l0,33.061l-33.06,0l0,-33.061l33.06,0Zm-37.156,0l0,33.061l-33.061,0l0,-33.061l33.061,0Zm-37.157,0l0,33.061l-33.061,0l0,-33.061l33.061,0Zm-37.157,0l0,33.061l-33.06,0l0,-33.061l33.06,0Zm-37.156,0l0,33.061l-33.061,0l0,-33.061l33.061,0Zm-70.217,33.061l33.06,0l0,-33.061l-33.06,0l0,33.061Zm-4.096,0l-31.013,0l31.013,-31.013l0,31.013Zm264.192,-68.169l31.012,31.012l-31.012,0l0,-31.012Zm-4.096,-2.048l0,33.06l-33.061,0l0,-33.06l33.061,0Zm-70.217,33.06l33.06,0l0,-33.06l-33.06,0l0,33.06Zm-4.096,-33.06l0,33.06l-33.061,0l0,-33.06l33.061,0Zm-37.157,0l0,33.06l-33.061,0l0,-33.06l33.061,0Zm-70.217,33.06l33.06,0l0,-33.06l-33.06,0l0,33.06Zm-4.096,-33.06l0,33.06l-33.061,0l0,-33.06l33.061,0Zm-37.157,33.06l-31.012,0l31.012,-31.012l0,31.012Zm189.879,-68.169l31.013,31.013l-31.013,0l0,-31.013Zm-37.156,31.013l33.06,0l0,-33.061l-33.06,0l0,33.061Zm-4.096,-33.061l0,33.061l-33.061,0l0,-33.061l33.061,0Zm-37.157,0l0,33.061l-33.061,0l0,-33.061l33.061,0Zm-70.217,33.061l33.06,0l0,-33.061l-33.06,0l0,33.061Zm-4.096,0l-31.013,0l31.013,-31.013l0,31.013Zm115.566,-68.169l31.012,31.012l-31.012,0l0,-31.012Zm-37.157,31.012l33.061,0l0,-33.06l-33.061,0l0,33.06Zm-37.157,0l33.061,0l0,-33.06l-33.061,0l0,33.06Zm-4.096,0l-31.012,0l31.012,-31.012l0,31.012Zm41.253,-68.169l31.013,31.013l-31.013,0l0,-31.013Zm-4.096,31.013l-31.013,0l31.013,-31.013l0,31.013Z" style="fill:#ececec;"/></svg>