<?xml version="1.0" encoding="UTF-8" standalone="no"?><!DOCTYPE svg PUBLIC "-//W3C//DTD SVG 1.1//EN" "http://www.w3.org/Graphics/SVG/1.1/DTD/svg11.dtd"><svg width="100%" height="100%" viewBox="0 0 512 512" version="1.1" xmlns="http://www.w3.org/2000/svg" xmlns:xlink="http://www.w3.org/1999/xlink" xml:space="preserve" xmlns:serif="http://www.serif.com/" style="fill-rule:evenodd;clip-rule:evenodd;stroke-linejoin:round;stroke-miterlimit:2;"><path id="Intelligence" d="M239.181,495.181l16.819,-16.82l16.819,16.82l2.01,-2.01l-18.829,-18.829l-18.829,18.829l2.01,2.01l-2.01,-2.01l-25.283,-25.283l44.112,-44.112l44.112,44.112l2.01,-2.01l-46.122,-46.122l-46.122,46.122l2.01,2.01l-2.01,-2.01l-25.283,-25.283l71.405,-71.405l71.405,71.405l2.01,-2.01l-73.415,-73.414l-73.415,73.414l2.01,2.01l-2.01,-2.01l-25.283,-25.283l98.698,-98.697l98.698,98.697l2.009,-2.009l-100.707,-100.708l-100.707,100.708l2.009,2.009l-2.009,-2.009l-27.293,-27.293l128.01,-126.021l127.99,126.021l-128,128l-16.819,-16.819Zm226.697,-285.303l2.01,2.01l-44.112,44.112l44.112,44.112l-2.01,2.01l-46.122,-46.122l46.122,-46.122Zm-419.756,0l-2.01,2.01l44.112,44.112l-44.112,44.112l2.01,2.01l46.122,-46.122l-46.122,-46.122Zm27.293,119.537l73.414,-73.415l-73.414,-73.415l-0.848,0.848l-1.162,1.162l71.405,71.405l-71.405,71.405l-52.576,-52.576l18.829,-18.829l-18.829,-18.829l-2.01,2.01l16.82,16.819l-16.82,16.819l-16.819,-16.819l71.405,-71.405l1.162,-1.162l26.131,-26.131l98.697,98.698l-98.697,98.698l2.009,2.009l-2.009,-2.009l-25.283,-25.283Zm201.414,-310.586l52.576,52.576l-71.405,71.405l-71.405,-71.405l25.283,-25.283l2.01,-2.01l25.283,-25.283l2.01,-2.01l-2.01,2.01l18.829,18.829l18.829,-18.829Zm-62.941,25.283l-2.01,2.01l46.122,46.122l46.122,-46.122l-2.01,-2.01l-44.112,44.112l-44.112,-44.112Zm283.293,228.707l-16.82,-16.819l16.82,-16.819l-2.01,-2.01l-18.829,18.829l18.829,18.829l-52.576,52.576l-71.405,-71.405l71.405,-71.405l-2.01,-2.01l-73.414,73.415l73.414,73.415l-25.283,25.283l-2.009,2.009l2.009,-2.009l-98.697,-98.698l98.697,-98.698l98.698,98.698l-16.819,16.819Zm-394.474,83.888l100.708,-100.707l-100.708,-100.707l25.283,-25.283l128.01,125.99l-128.01,125.99l-25.283,-25.283Zm285.303,-226.697l25.283,25.283l-100.708,100.707l100.708,100.707l-25.283,25.283l-127.991,-125.99l127.991,-125.99Zm-29.303,-29.303l27.293,27.293l-127.99,126.021l-128.01,-126.021l-2.01,2.01l29.303,-29.303l2.009,-2.009l-2.009,2.009l100.707,100.708l100.707,-100.708Zm0,0l-2.009,-2.009l-98.698,98.697l-98.698,-98.697l25.283,-25.283l2.01,-2.01l-2.01,2.01l73.415,73.414l73.415,-73.414l-1.133,-1.133l-0.877,-0.877l29.302,29.302Zm-83.888,-83.888l-16.819,16.82l-16.819,-16.82l16.819,-16.819l16.819,16.819Z" style="fill:#ececec;"/></svg>