<?xml version="1.0" encoding="UTF-8" standalone="no"?><!DOCTYPE svg PUBLIC "-//W3C//DTD SVG 1.1//EN" "http://www.w3.org/Graphics/SVG/1.1/DTD/svg11.dtd"><svg width="100%" height="100%" viewBox="0 0 512 512" version="1.1" xmlns="http://www.w3.org/2000/svg" xmlns:xlink="http://www.w3.org/1999/xlink" xml:space="preserve" xmlns:serif="http://www.serif.com/" style="fill-rule:evenodd;clip-rule:evenodd;stroke-linejoin:round;stroke-miterlimit:2;"><path id="Lead-Generation" serif:id="Lead Generation" d="M319.992,448.008l-29.18,29.18l-221.189,-221.188l221.189,-221.188l-2.829,-2.829l-221.188,221.189l-2.829,2.828l224.017,224.017l-31.983,31.983l-256,-256l256,-256l256,256l-157.172,157.172l-157.171,-157.172l58.343,-58.343l2.061,-2.061l96.767,-96.768l-2.828,-2.828l-157.172,157.172l-2.828,2.828l160,160l-29.18,29.18l-2.828,2.828l2.828,-2.828l-189.18,-189.18l189.18,-189.18l-2.828,-2.828l-189.18,189.18l-2.829,2.828l192.009,192.008Zm157.213,-194.836l-138.343,-138.344l-2.828,2.829l138.343,138.343l-138.36,138.36l2.828,2.828l138.36,-138.36l2.829,-2.828l-2.829,-2.828Zm-32,0l-122.343,-122.344l-2.828,2.829l122.343,122.343l-122.36,122.36l2.828,2.828l122.36,-122.36l2.829,-2.828l-2.829,-2.828Zm-32,0l-106.343,-106.344l-2.828,2.829l106.343,106.343l-106.36,106.36l2.828,2.828l106.36,-106.36l2.829,-2.828l-2.829,-2.828Zm-32,0l-90.343,-90.344l-2.828,2.829l90.343,90.343l-90.355,90.355l2.828,2.828l90.355,-90.355l2.829,-2.828l-2.829,-2.828Zm-32,0l-74.343,-74.344l-2.828,2.829l74.343,74.343l-74.355,74.355l2.828,2.828l74.355,-74.355l2.829,-2.828l-2.829,-2.828Zm-91.144,-57.576l-2.061,2.061l58.343,58.343l-58.321,58.321l2.828,2.829l58.322,-58.322l2.828,-2.828l-2.828,-2.828l-58.344,-58.344l-0.767,0.768Z" style="fill:#ececec;"/></svg>