<?xml version="1.0" encoding="UTF-8" standalone="no"?><!DOCTYPE svg PUBLIC "-//W3C//DTD SVG 1.1//EN" "http://www.w3.org/Graphics/SVG/1.1/DTD/svg11.dtd"><svg width="100%" height="100%" viewBox="0 0 512 512" version="1.1" xmlns="http://www.w3.org/2000/svg" xmlns:xlink="http://www.w3.org/1999/xlink" xml:space="preserve" xmlns:serif="http://www.serif.com/" style="fill-rule:evenodd;clip-rule:evenodd;stroke-linejoin:round;stroke-miterlimit:2;"><path id="Nurture" d="M128,128l128,-128l256,256l-256,256l-128,-128l256,0l0,-256l-256,0l0,256l-128,-128l128,-128Zm128,2.842l-125.158,125.158l125.158,125.158l-125.158,0l0,-250.316l125.158,0Zm0,250.316l125.158,0l0,-125.158l-125.158,125.158Zm60.575,-64.583l0,-121.15l-121.15,0l0,121.15l-60.575,-60.575l121.15,-121.15l121.15,121.15l-121.15,121.15l-60.575,-60.575l121.15,0Zm-2.84,-118.31l0,57.735l-57.735,-57.735l-57.735,57.735l57.735,57.735l-57.735,0l0,-115.47l115.47,0Zm0,57.735l-57.735,57.735l57.735,0l0,-57.735Zm-57.735,-53.75l53.75,53.75l-53.75,53.75l-53.75,-53.75l26.875,-26.875l0,53.75l53.75,0l0,-53.75l-53.75,0l26.875,-26.875Zm24.042,29.708l0,24.042l-24.042,-24.042l-24.042,24.042l24.042,24.042l-24.042,0l0,-48.084l48.084,0Zm0,24.042l-24.042,24.042l24.042,0l0,-24.042Zm-24.042,-20.05l20.05,20.05l-20.05,20.05l-20.05,-20.05l20.05,-20.05Zm0,-105.108l125.158,125.158l0,-125.158l-125.158,0Z" style="fill:#ececec;"/></svg>