<svg xmlns="http://www.w3.org/2000/svg" width="30.964" height="30.964" viewBox="167.692 20 30.964 30.964"><path d="m183.174 20 1.72 1.72-1.72 1.72-1.72-1.72 1.72-1.72Zm3.44 3.44 1.72 1.72-1.72 1.721-1.72-1.72 1.72-1.72Zm-6.88 0 1.72 1.72-1.72 1.721-1.72-1.72 1.72-1.72Zm10.321 3.441 1.72 1.72-1.72 1.72-1.72-1.72 1.72-1.72Zm-6.88 0 1.72 1.72-1.72 1.72-1.721-1.72 1.72-1.72Zm-6.882 0 1.72 1.72-1.72 1.72-1.72-1.72 1.72-1.72Zm17.202 3.44 1.72 1.72-1.72 1.72-1.72-1.72 1.72-1.72Zm-6.88 0 1.72 1.72-1.72 1.72-1.72-1.72 1.72-1.72Zm-6.882 0 1.72 1.72-1.72 1.72-1.72-1.72 1.72-1.72Zm-6.88 0 1.72 1.72-1.72 1.72-1.72-1.72 1.72-1.72Zm24.083 3.44 1.72 1.72-1.72 1.721-1.72-1.72 1.72-1.72Zm-6.881 0 1.72 1.72-1.72 1.721-1.72-1.72 1.72-1.72Zm-6.88 0 1.72 1.72-1.72 1.721-1.721-1.72 1.72-1.72Zm-6.882 0 1.72 1.72-1.72 1.721-1.72-1.72 1.72-1.72Zm-6.88 0 1.72 1.72-1.72 1.721-1.721-1.72 1.72-1.72Zm24.082 3.441 1.72 1.72-1.72 1.72-1.72-1.72 1.72-1.72Zm-6.88 0 1.72 1.72-1.72 1.72-1.72-1.72 1.72-1.72Zm-6.882 0 1.72 1.72-1.72 1.72-1.72-1.72 1.72-1.72Zm-6.88 0 1.72 1.72-1.72 1.72-1.72-1.72 1.72-1.72Zm17.202 3.44 1.72 1.721-1.72 1.72-1.72-1.72 1.72-1.72Zm-6.88 0 1.72 1.721-1.72 1.72-1.721-1.72 1.72-1.72Zm-6.882 0 1.72 1.721-1.72 1.72-1.72-1.72 1.72-1.72Zm10.322 3.44 1.72 1.721-1.72 1.72-1.72-1.72 1.72-1.72Zm-6.882 0 1.72 1.721-1.72 1.72-1.72-1.72 1.72-1.72Zm3.441 3.441 1.72 1.72-1.72 1.72-1.72-1.72 1.72-1.72Z" fill="#43a0e9" fill-rule="evenodd" data-name="Path 1"/></svg>