<svg xmlns="http://www.w3.org/2000/svg" width="29.87" height="29.87" viewBox="167.878 20.015 29.87 29.87"><path d="m179.494 26.654 3.32 3.319 3.318-3.32-3.319-3.319-3.319 3.32Zm3.32-6.639 6.637 6.639-6.638 6.637-6.637-6.637 6.637-6.639Zm8.297 18.254 3.319-3.318-3.32-3.32-3.318 3.32 3.319 3.318Zm-16.595 0 3.319-3.318-3.32-3.32-3.318 3.32 3.319 3.318Zm9.957-3.318 6.638-6.638 6.637 6.638-6.637 6.638-6.638-6.638Zm-16.595 0 6.638-6.638 6.638 6.638-6.638 6.638-6.638-6.638Zm11.616 8.297 3.32 3.319 3.318-3.319-3.319-3.319-3.319 3.319Zm3.32-6.638 6.637 6.638-6.638 6.638-6.637-6.638 6.637-6.638Z" fill="#3e8b05" fill-rule="evenodd" data-name="Path 353"/></svg>