<svg xmlns="http://www.w3.org/2000/svg" width="28.933" height="28.933" viewBox="259.824 16.198 28.933 28.933"><path d="m274.29 29.057 1.61 1.607-1.61 1.608-1.602-1.608 1.603-1.607Zm1.11-1.072h1.573v1.57l1.11 1.11-1.11 1.109v1.57H275.4l-1.11 1.11-1.108-1.11h-1.568v-1.57l-1.109-1.11 1.11-1.11v-1.57h1.567l1.109-1.109 1.109 1.11Zm.946-2.273h2.9v2.901l2.049 2.051-2.049 2.051v2.902h-2.9l-2.055 2.05-2.05-2.05h-2.899v-2.902l-2.055-2.05 2.055-2.052v-2.901h2.9l2.049-2.051 2.055 2.05Zm.94-2.273h4.232v4.232l2.99 2.993-2.99 2.993v4.233h-4.232l-2.995 2.992-2.99-2.992h-4.237v-4.233l-2.99-2.993 2.99-2.993V23.44h4.237l2.99-2.993 2.995 2.993Zm-2.995-7.241 14.466 14.466-14.466 14.467-14.467-14.467 14.467-14.466Z" fill="#be62c5" fill-rule="evenodd" data-name="Path 50"/></svg>