<svg xmlns="http://www.w3.org/2000/svg" width="24.649" height="24.648" viewBox="537.342 19.234 24.649 24.648"><path d="m549.667 30.19 1.37 1.368-1.37 1.37-1.367-1.37 1.367-1.369Zm2.716 5.501 4.134-4.133-4.108-4.107-1.371 1.369 2.737 2.738-2.763 2.764 1.371 1.37Zm2.712 2.763 6.896-6.896-6.845-6.846-1.371 1.37 5.479 5.476-5.525 5.527 1.366 1.37Zm-2.686 2.69-9.588-9.586 9.588-9.585 1.366 1.37-8.217 8.215 8.217 8.217-1.366 1.369Zm-2.742 2.739-12.325-12.325 12.325-12.324 1.37 1.37-10.953 10.954 10.954 10.956-1.371 1.369Z" fill="#d13a4d" fill-rule="evenodd" data-name="Path 335"/></svg>