<?xml version="1.0" encoding="utf-8"?>
<!-- Generator: Adobe Illustrator 26.4.0, SVG Export Plug-In . SVG Version: 6.00 Build 0)  -->
<svg version="1.1" id="Layer_1" xmlns="http://www.w3.org/2000/svg" xmlns:xlink="http://www.w3.org/1999/xlink" x="0px" y="0px"
	 viewBox="0 0 1067.3 1067.3" style="enable-background:new 0 0 1067.3 1067.3;" xml:space="preserve">
<style type="text/css">
	.st0{fill:#00E205;}
</style>
<g>
	<path class="st0" d="M533.7,13.3L13.3,533.7L533.7,1054L1054,533.7L533.7,13.3z M533.7,971.4l-438-438l438-438l438,438L533.7,971.4
		z"/>
	<path class="st0" d="M533.7,178.8L178.8,533.7l354.9,354.9l354.9-354.9L533.7,178.8z M533.7,832.2L235,533.4l298.7-298.7
		l298.7,298.7L533.7,832.2z"/>
	<path class="st0" d="M533.7,325L325,533.7l208.6,208.6l208.6-208.6L533.7,325z M533.7,709.2L358,533.5l175.6-175.6l175.6,175.6
		L533.7,709.2z"/>
	
		<rect x="447.8" y="447.8" transform="matrix(0.7071 0.7071 -0.7071 0.7071 533.6722 -221.0524)" class="st0" width="171.8" height="171.8"/>
</g>
</svg>
