<svg id="Layer_1" data-name="Layer 1" xmlns="http://www.w3.org/2000/svg" viewBox="0 0 23.67 23.67"><defs><style>.cls-1{fill:#6900ff;fill-rule:evenodd;}</style></defs><path class="cls-1" d="M11.82,0l1.32,1.31L11.82,2.63,10.51,1.31Zm0,5.26,2.63-2.63,1.32,1.31-3.95,4L7.88,3.94,9.19,2.63ZM0,11.83,1.3,13.15l1.32-1.32L1.3,10.52Zm23.67,0-1.32,1.32L21,11.83l1.31-1.31Zm-18.41,0L2.62,14.46l1.32,1.32,3.94-3.95L3.94,7.89,2.62,9.2l2.63,2.63Zm13.15,0L21,14.46l-1.32,1.32-3.94-3.95,3.94-3.94L21,9.2,18.4,11.83ZM17.09,5.26,18.4,6.57l-5.26,5.26,5.26,5.26-1.31,1.32-5.26-5.26L6.56,18.41,5.25,17.09h0l5.26-5.26L5.25,6.57,6.56,5.26l5.26,5.26,5.26-5.26ZM11.83,18.41,14.45,21l1.32-1.32-3.95-3.94L7.88,19.72,9.19,21l2.63-2.63Zm0,5.26,1.31-1.32L11.83,21l-1.32,1.31,1.31,1.32Z" transform="translate(0.01)"/></svg>