<svg xmlns="http://www.w3.org/2000/svg" width="34.875" height="34.875" viewBox="1844 19.137 34.875 34.875"><path d="M1861.438 19.137c-9.633 0-17.438 7.805-17.438 17.438s7.805 17.437 17.438 17.437c9.632 0 17.437-7.804 17.437-17.437 0-9.633-7.805-17.438-17.438-17.438Zm0 6.75a6.188 6.188 0 1 1 0 12.376 6.188 6.188 0 0 1 0-12.376Zm0 24.188c-4.128 0-7.826-1.87-10.301-4.795 1.322-2.49 3.91-4.205 6.926-4.205.168 0 .337.028.499.077.914.296 1.87.485 2.876.485 1.005 0 1.968-.19 2.875-.485.162-.049.33-.077.5-.077 3.016 0 5.603 1.716 6.925 4.205-2.475 2.925-6.173 4.795-10.3 4.795Z" fill="#f5f5f5" fill-rule="evenodd" data-name="Icon awesome-user-circle"/></svg>