<svg xmlns="http://www.w3.org/2000/svg" width="31.29" height="31.29" viewBox="1783.355 20.43 31.29 31.29"><g data-name="Icon feather-settings"><path d="M1809.525 40.342a2.347 2.347 0 0 0 .47 2.588l.085.086a2.845 2.845 0 0 1-2.013 4.859c-.755 0-1.479-.3-2.012-.834l-.086-.086a2.347 2.347 0 0 0-2.588-.469 2.347 2.347 0 0 0-1.423 2.148v.242a2.845 2.845 0 0 1-5.689 0v-.128a2.347 2.347 0 0 0-1.536-2.148 2.347 2.347 0 0 0-2.588.47l-.086.085a2.845 2.845 0 0 1-4.86-2.013c0-.755.301-1.479.835-2.013l.086-.085c.67-.686.856-1.71.469-2.588a2.347 2.347 0 0 0-2.148-1.423h-.242a2.845 2.845 0 0 1 0-5.689h.128a2.347 2.347 0 0 0 2.148-1.536 2.347 2.347 0 0 0-.47-2.589l-.085-.085a2.845 2.845 0 0 1 2.013-4.86c.755 0 1.479.3 2.012.835l.086.085c.686.671 1.71.857 2.588.47h.114a2.347 2.347 0 0 0 1.422-2.148v-.242a2.845 2.845 0 1 1 5.69 0v.128c.003.936.562 1.78 1.422 2.148a2.347 2.347 0 0 0 2.588-.47l.086-.085a2.845 2.845 0 0 1 4.86 2.013c0 .755-.301 1.479-.835 2.012l-.085.086a2.347 2.347 0 0 0-.47 2.588v.114a2.347 2.347 0 0 0 2.148 1.422h.242a2.845 2.845 0 0 1 0 5.69h-.128a2.347 2.347 0 0 0-2.148 1.422Z" stroke-linejoin="round" stroke-linecap="round" stroke="#fafafa" fill="transparent" data-name="Path 54"/><path d="M1803.267 36.075a4.267 4.267 0 1 1-8.534 0 4.267 4.267 0 0 1 8.534 0Z" stroke-linejoin="round" stroke-linecap="round" stroke="#fafafa" fill="transparent" data-name="Path 53"/></g></svg>